<mxfile host="app.diagrams.net" modified="2023-08-13T04:29:27.221Z" agent="Mozilla/5.0 (Macintosh; Intel Mac OS X 10_15_7) AppleWebKit/537.36 (KHTML, like Gecko) Chrome/115.0.0.0 Safari/537.36" version="21.2.1" etag="HhpMHexq-gtTWm9FdHWn" type="github">
  <diagram name="ページ1" id="Q5Jl9wd2wZIprcnueIEY">
    <mxGraphModel>
      <root>
        <mxCell id="0" />
        <mxCell id="1" parent="0" />
      </root>
    </mxGraphModel>
  </diagram>
</mxfile>
